Coordinates
version=1
nRows=11
nColumns=46
inDegrees=yes

Units are S.I. units (second, meters, Newtons, ...)
Angles are in degrees.

endheader
time	pelvis_tilt	pelvis_list	pelvis_rotation	pelvis_tx	pelvis_ty	pelvis_tz	bb_angle	bb_tx	bb_ty	bb_tz	hip_flexion_r	hip_adduction_r	hip_rotation_r	knee_angle_r	knee_angle_r_beta	ankle_angle_r	subtalar_angle_r	mtp_angle_r	crank_angle_r	hip_flexion_l	hip_adduction_l	hip_rotation_l	knee_angle_l	knee_angle_l_beta	ankle_angle_l	subtalar_angle_l	mtp_angle_l	crank_angle_l	lumbar_extension	lumbar_bending	lumbar_rotation	arm_flex_r	arm_add_r	arm_rot_r	elbow_flex_r	pro_sup_r	wrist_flex_r	wrist_dev_r	arm_flex_l	arm_add_l	arm_rot_l	elbow_flex_l	pro_sup_l	wrist_flex_l	wrist_dev_l
      5.00500000	    -12.18803201	     -5.11069447	     -3.84004851	      0.18641400	      1.06598854	     -0.31280964	      0.00000000	      0.50000000	      0.00000000	      0.25000000	     93.33750275	      0.34900232	      2.20879771	    115.91421861	      2.02308476	     -8.19508948	    -12.44201953	      0.00000000	      0.00000000	     37.80325758	    -13.90859458	     -6.79755173	     33.35987017	      0.58223957	    -22.88309436	      3.14150965	      0.00000000	      0.00000000	    -68.06219439	     -0.49911047	      7.35917164	     89.41802371	    -19.46330923	     30.72770878	     60.87616139	     39.19996209	      0.00000000	      0.00000000	     85.88271950	    -14.44995571	     24.22812256	     67.04169033	     39.09976599	      0.00000000	      0.00000000
      5.01000000	    -12.13405065	     -5.28795611	     -3.96165849	      0.18625302	      1.06739950	     -0.31342803	      0.00000000	      0.50000000	      0.00000000	      0.25000000	     93.48976954	      0.18357848	      1.83315644	    115.00848437	      2.00727672	     -7.55109756	    -12.25299259	      0.00000000	      0.00000000	     37.64219238	    -14.19413648	     -6.99981285	     34.34549393	      0.59944195	    -23.26716043	      2.56401438	      0.00000000	      0.00000000	    -68.31349615	     -0.21428371	      7.55209645	     89.46662223	    -19.12109177	     30.70578567	     61.03180953	     39.14458887	      0.00000000	      0.00000000	     85.89524925	    -14.86010392	     24.16946393	     67.02645468	     39.12021295	      0.00000000	      0.00000000
      5.01500000	    -12.32230672	     -5.56423991	     -3.91488499	      0.18580902	      1.06842187	     -0.31423063	      0.00000000	      0.50000000	      0.00000000	      0.25000000	     93.64633377	     -0.12087264	      1.38946591	    113.92208728	      1.98831551	     -6.46895363	    -11.62137482	      0.00000000	      0.00000000	     38.01686169	    -14.40389762	     -6.61887548	     35.67007943	      0.62256033	    -23.38059221	      1.85282910	      0.00000000	      0.00000000	    -68.37263310	      0.38985091	      7.63356822	     89.49726168	    -18.42026153	     30.41075555	     61.42684514	     38.97747261	      0.00000000	      0.00000000	     85.77504941	    -15.66019174	     24.19534558	     67.22352997	     39.22268162	      0.00000000	      0.00000000
      5.02000000	    -12.33334347	     -5.55063733	     -4.04712345	      0.18542182	      1.06969329	     -0.31481410	      0.00000000	      0.50000000	      0.00000000	      0.25000000	     93.44982668	     -0.21387197	      1.19429781	    112.71734442	      1.96728878	     -5.23450585	    -11.55241816	      0.00000000	      0.00000000	     38.18802574	    -14.45857687	     -6.58362080	     37.15382504	      0.64845658	    -23.38068711	      1.00641747	      0.00000000	      0.00000000	    -68.60765595	      0.52130856	      7.62329662	     89.52603593	    -18.12061559	     30.28132916	     61.62175808	     38.91645356	      0.00000000	      0.00000000	     85.87819648	    -16.07889056	     24.13750241	     67.31236335	     39.25658375	      0.00000000	      0.00000000
      5.02500000	    -12.32076845	     -5.56071390	     -4.16282944	      0.18498201	      1.07088750	     -0.31530857	      0.00000000	      0.50000000	      0.00000000	      0.25000000	     93.02099368	     -0.24405061	      1.01244962	    111.36911582	      1.94375776	     -3.72238561	    -11.41926038	      0.00000000	      0.00000000	     38.48574633	    -14.49848180	     -6.32429763	     38.86630768	      0.67834504	    -23.41119404	      0.07302185	      0.00000000	      0.00000000	    -68.85466777	      0.65413873	      7.55556759	     89.54610111	    -17.81152434	     30.13549261	     61.87504503	     38.87879946	      0.00000000	      0.00000000	     85.92575678	    -16.48456279	     24.09204591	     67.38486179	     39.28386714	      0.00000000	      0.00000000
      5.03000000	    -12.65852694	     -5.81134595	     -4.11182614	      0.18438621	      1.07150212	     -0.31630617	      0.00000000	      0.50000000	      0.00000000	      0.25000000	     92.65066395	     -0.47452210	      0.69367954	    109.78893263	      1.91617836	     -1.52533294	    -10.05767978	      0.00000000	      0.00000000	     39.44599524	    -14.56232204	     -5.50816720	     40.91563340	      0.71411252	    -23.26137057	     -1.17935011	      0.00000000	      0.00000000	    -68.90248885	      1.38588212	      7.19301838	     89.57311145	    -15.97943506	     28.80795773	     62.36720405	     37.72113085	      0.00000000	      0.00000000	     85.53185116	    -18.64598359	     24.50525981	     69.43535635	     39.94175255	      0.00000000	      0.00000000
      5.03500000	    -12.70626386	     -5.67486793	     -4.31711721	      0.18405680	      1.07264742	     -0.31668738	      0.00000000	      0.50000000	      0.00000000	      0.25000000	     91.85273205	     -0.33575825	      0.66189192	    108.07320873	      1.88623333	      0.46955413	    -10.07750355	      0.00000000	      0.00000000	     39.92694353	    -14.45779478	     -5.21045563	     42.92284979	      0.74914505	    -23.04038193	     -2.26722049	      0.00000000	      0.00000000	    -69.10128393	      1.35340640	      7.11758206	     89.58974678	    -15.79200091	     28.79168613	     62.56931312	     37.67002149	      0.00000000	      0.00000000	     85.69888910	    -18.90689353	     24.40615756	     69.41109105	     39.94734598	      0.00000000	      0.00000000
      5.04000000	    -12.81568990	     -5.59413398	     -4.52813825	      0.18360988	      1.07346066	     -0.31728506	      0.00000000	      0.50000000	      0.00000000	      0.25000000	     90.92904934	     -0.22487870	      0.61370175	    106.16231390	      1.85288192	      2.57430367	     -9.72474413	      0.00000000	      0.00000000	     40.65545585	    -14.36273993	     -4.76542272	     45.19971284	      0.78888381	    -22.77468628	     -3.51916363	      0.00000000	      0.00000000	    -69.22254795	      1.39961774	      7.05369095	     89.60153102	    -15.53896940	     28.71068775	     62.88294004	     37.63244250	      0.00000000	      0.00000000	     85.78603231	    -19.24731295	     24.32005128	     69.42999815	     39.96170804	      0.00000000	      0.00000000
      5.04500000	    -13.16372815	     -5.71386912	     -4.58404550	      0.18319578	      1.07382761	     -0.31827553	      0.00000000	      0.50000000	      0.00000000	      0.25000000	     90.01048371	     -0.26078478	      0.43189146	    104.01633079	      1.81542745	      5.14045926	     -8.23237076	      0.00000000	      0.00000000	     41.84400152	    -14.26186214	     -3.82999292	     47.65850035	      0.83179775	    -22.55882550	     -4.73319819	      0.00000000	      0.00000000	    -69.14182629	      1.81082365	      7.13873733	     89.61781905	    -15.02567406	     28.40970122	     63.50874449	     37.46937684	      0.00000000	      0.00000000	     85.56344868	    -19.90813305	     24.28656979	     69.77783269	     40.07250166	      0.00000000	      0.00000000
      5.05000000	    -13.22158581	     -5.37422673	     -4.70560571	      0.18301999	      1.07441249	     -0.31895129	      0.00000000	      0.50000000	      0.00000000	      0.25000000	     88.79198660	     -0.19162043	      0.62185749	    101.90194640	      1.77852448	      7.43226517	     -8.29474699	      0.00000000	      0.00000000	     42.61966248	    -13.81642564	     -3.38493487	     50.13357287	      0.87499591	    -22.01988976	     -5.86304690	      0.00000000	      0.00000000	    -69.25226758	      1.72670216	      6.84957163	     89.62039912	    -14.84728764	     28.29240688	     63.74083341	     37.39768251	      0.00000000	      0.00000000	     85.68222356	    -20.16176016	     24.21751620	     69.94771602	     40.11540640	      0.00000000	      0.00000000
      5.05500000	    -13.47154062	     -5.30060292	     -4.69387838	      0.18275868	      1.07466330	     -0.31998327	      0.00000000	      0.50000000	      0.00000000	      0.25000000	     87.55440828	     -0.21754837	      0.59101370	     99.52865517	      1.73710273	      9.76518863	     -7.57374653	      0.00000000	      0.00000000	     43.78138517	    -13.43010176	     -2.38989554	     52.70151202	      0.91981491	    -21.66378950	     -6.72871097	      0.00000000	      0.00000000	    -69.24430244	      2.07357312	      6.50642652	     89.62708409	    -14.09716962	     27.72068082	     64.28164547	     36.71529690	      0.00000000	      0.00000000	     85.33788477	    -21.07330135	     24.15375922	     71.17514678	     40.46316618	      0.00000000	      0.00000000
